<mxfile host="app.diagrams.net" modified="2024-03-26T16:37:41.955Z" agent="Mozilla/5.0 (Windows NT 10.0; Win64; x64; rv:124.0) Gecko/20100101 Firefox/124.0" etag="ke3ros51nsyvpcHCLVBA" version="24.1.0" type="device">
  <diagram name="Σελίδα-1" id="i426EweY9k0fB_F2wGhc">
    <mxGraphModel dx="1450" dy="999" grid="0" gridSize="10" guides="1" tooltips="1" connect="1" arrows="1" fold="1" page="0" pageScale="1" pageWidth="827" pageHeight="1169" math="0" shadow="0">
      <root>
        <mxCell id="0" />
        <mxCell id="1" parent="0" />
        <mxCell id="jc9Oq-ymmOkImTj3RlM5-2" value="Τίτλος" style="rounded=0;whiteSpace=wrap;html=1;" vertex="1" parent="1">
          <mxGeometry x="-262" y="-35" width="160" height="24" as="geometry" />
        </mxCell>
        <mxCell id="jc9Oq-ymmOkImTj3RlM5-3" value="Έναρξη" style="rounded=0;whiteSpace=wrap;html=1;" vertex="1" parent="1">
          <mxGeometry x="-102" y="-35" width="77" height="24" as="geometry" />
        </mxCell>
        <mxCell id="jc9Oq-ymmOkImTj3RlM5-4" value="Λήξη" style="rounded=0;whiteSpace=wrap;html=1;" vertex="1" parent="1">
          <mxGeometry x="-25" y="-35" width="66" height="24" as="geometry" />
        </mxCell>
        <mxCell id="jc9Oq-ymmOkImTj3RlM5-5" value="Διάρκεια" style="rounded=0;whiteSpace=wrap;html=1;" vertex="1" parent="1">
          <mxGeometry x="41" y="-35" width="71" height="24" as="geometry" />
        </mxCell>
        <mxCell id="jc9Oq-ymmOkImTj3RlM5-7" value="" style="rounded=0;whiteSpace=wrap;html=1;" vertex="1" parent="1">
          <mxGeometry x="-262" y="-11" width="160" height="21" as="geometry" />
        </mxCell>
        <mxCell id="jc9Oq-ymmOkImTj3RlM5-8" value="" style="rounded=0;whiteSpace=wrap;html=1;" vertex="1" parent="1">
          <mxGeometry x="-102" y="-11" width="77" height="21" as="geometry" />
        </mxCell>
        <mxCell id="jc9Oq-ymmOkImTj3RlM5-10" value="" style="rounded=0;whiteSpace=wrap;html=1;" vertex="1" parent="1">
          <mxGeometry x="-25" y="-11" width="66" height="21" as="geometry" />
        </mxCell>
        <mxCell id="jc9Oq-ymmOkImTj3RlM5-11" value="" style="rounded=0;whiteSpace=wrap;html=1;" vertex="1" parent="1">
          <mxGeometry x="41" y="-11" width="71" height="21" as="geometry" />
        </mxCell>
        <mxCell id="jc9Oq-ymmOkImTj3RlM5-16" value="" style="rounded=0;whiteSpace=wrap;html=1;" vertex="1" parent="1">
          <mxGeometry x="-262" y="10" width="160" height="21" as="geometry" />
        </mxCell>
        <mxCell id="jc9Oq-ymmOkImTj3RlM5-17" value="" style="rounded=0;whiteSpace=wrap;html=1;" vertex="1" parent="1">
          <mxGeometry x="-102" y="10" width="77" height="21" as="geometry" />
        </mxCell>
        <mxCell id="jc9Oq-ymmOkImTj3RlM5-18" value="" style="rounded=0;whiteSpace=wrap;html=1;" vertex="1" parent="1">
          <mxGeometry x="-25" y="10" width="66" height="21" as="geometry" />
        </mxCell>
        <mxCell id="jc9Oq-ymmOkImTj3RlM5-19" value="" style="rounded=0;whiteSpace=wrap;html=1;" vertex="1" parent="1">
          <mxGeometry x="41" y="10" width="71" height="21" as="geometry" />
        </mxCell>
        <mxCell id="jc9Oq-ymmOkImTj3RlM5-20" value="" style="rounded=0;whiteSpace=wrap;html=1;" vertex="1" parent="1">
          <mxGeometry x="-262" y="31" width="160" height="21" as="geometry" />
        </mxCell>
        <mxCell id="jc9Oq-ymmOkImTj3RlM5-21" value="" style="rounded=0;whiteSpace=wrap;html=1;" vertex="1" parent="1">
          <mxGeometry x="-102" y="31" width="77" height="21" as="geometry" />
        </mxCell>
        <mxCell id="jc9Oq-ymmOkImTj3RlM5-22" value="" style="rounded=0;whiteSpace=wrap;html=1;" vertex="1" parent="1">
          <mxGeometry x="-25" y="31" width="66" height="21" as="geometry" />
        </mxCell>
        <mxCell id="jc9Oq-ymmOkImTj3RlM5-23" value="" style="rounded=0;whiteSpace=wrap;html=1;" vertex="1" parent="1">
          <mxGeometry x="41" y="31" width="71" height="21" as="geometry" />
        </mxCell>
        <mxCell id="jc9Oq-ymmOkImTj3RlM5-24" value="" style="rounded=0;whiteSpace=wrap;html=1;" vertex="1" parent="1">
          <mxGeometry x="-262" y="52" width="160" height="21" as="geometry" />
        </mxCell>
        <mxCell id="jc9Oq-ymmOkImTj3RlM5-25" value="" style="rounded=0;whiteSpace=wrap;html=1;" vertex="1" parent="1">
          <mxGeometry x="-102" y="52" width="77" height="21" as="geometry" />
        </mxCell>
        <mxCell id="jc9Oq-ymmOkImTj3RlM5-26" value="" style="rounded=0;whiteSpace=wrap;html=1;" vertex="1" parent="1">
          <mxGeometry x="-25" y="52" width="66" height="21" as="geometry" />
        </mxCell>
        <mxCell id="jc9Oq-ymmOkImTj3RlM5-27" value="" style="rounded=0;whiteSpace=wrap;html=1;" vertex="1" parent="1">
          <mxGeometry x="41" y="52" width="71" height="21" as="geometry" />
        </mxCell>
        <mxCell id="jc9Oq-ymmOkImTj3RlM5-28" value="" style="rounded=0;whiteSpace=wrap;html=1;" vertex="1" parent="1">
          <mxGeometry x="-262" y="73" width="160" height="21" as="geometry" />
        </mxCell>
        <mxCell id="jc9Oq-ymmOkImTj3RlM5-29" value="" style="rounded=0;whiteSpace=wrap;html=1;" vertex="1" parent="1">
          <mxGeometry x="-102" y="73" width="77" height="21" as="geometry" />
        </mxCell>
        <mxCell id="jc9Oq-ymmOkImTj3RlM5-30" value="" style="rounded=0;whiteSpace=wrap;html=1;" vertex="1" parent="1">
          <mxGeometry x="-25" y="73" width="66" height="21" as="geometry" />
        </mxCell>
        <mxCell id="jc9Oq-ymmOkImTj3RlM5-31" value="" style="rounded=0;whiteSpace=wrap;html=1;" vertex="1" parent="1">
          <mxGeometry x="41" y="73" width="71" height="21" as="geometry" />
        </mxCell>
        <mxCell id="jc9Oq-ymmOkImTj3RlM5-32" value="" style="rounded=0;whiteSpace=wrap;html=1;" vertex="1" parent="1">
          <mxGeometry x="-262" y="94" width="160" height="21" as="geometry" />
        </mxCell>
        <mxCell id="jc9Oq-ymmOkImTj3RlM5-33" value="" style="rounded=0;whiteSpace=wrap;html=1;" vertex="1" parent="1">
          <mxGeometry x="-102" y="94" width="77" height="21" as="geometry" />
        </mxCell>
        <mxCell id="jc9Oq-ymmOkImTj3RlM5-34" value="" style="rounded=0;whiteSpace=wrap;html=1;" vertex="1" parent="1">
          <mxGeometry x="-25" y="94" width="66" height="21" as="geometry" />
        </mxCell>
        <mxCell id="jc9Oq-ymmOkImTj3RlM5-35" value="" style="rounded=0;whiteSpace=wrap;html=1;" vertex="1" parent="1">
          <mxGeometry x="41" y="94" width="71" height="21" as="geometry" />
        </mxCell>
        <mxCell id="jc9Oq-ymmOkImTj3RlM5-40" value="" style="rounded=0;whiteSpace=wrap;html=1;" vertex="1" parent="1">
          <mxGeometry x="-262" y="115" width="160" height="21" as="geometry" />
        </mxCell>
        <mxCell id="jc9Oq-ymmOkImTj3RlM5-41" value="" style="rounded=0;whiteSpace=wrap;html=1;" vertex="1" parent="1">
          <mxGeometry x="-102" y="115" width="77" height="21" as="geometry" />
        </mxCell>
        <mxCell id="jc9Oq-ymmOkImTj3RlM5-42" value="" style="rounded=0;whiteSpace=wrap;html=1;" vertex="1" parent="1">
          <mxGeometry x="-25" y="115" width="66" height="21" as="geometry" />
        </mxCell>
        <mxCell id="jc9Oq-ymmOkImTj3RlM5-43" value="" style="rounded=0;whiteSpace=wrap;html=1;" vertex="1" parent="1">
          <mxGeometry x="41" y="115" width="71" height="21" as="geometry" />
        </mxCell>
        <mxCell id="jc9Oq-ymmOkImTj3RlM5-44" value="" style="rounded=0;whiteSpace=wrap;html=1;" vertex="1" parent="1">
          <mxGeometry x="-262" y="136" width="160" height="21" as="geometry" />
        </mxCell>
        <mxCell id="jc9Oq-ymmOkImTj3RlM5-45" value="" style="rounded=0;whiteSpace=wrap;html=1;" vertex="1" parent="1">
          <mxGeometry x="-102" y="136" width="77" height="21" as="geometry" />
        </mxCell>
        <mxCell id="jc9Oq-ymmOkImTj3RlM5-46" value="" style="rounded=0;whiteSpace=wrap;html=1;" vertex="1" parent="1">
          <mxGeometry x="-25" y="136" width="66" height="21" as="geometry" />
        </mxCell>
        <mxCell id="jc9Oq-ymmOkImTj3RlM5-47" value="" style="rounded=0;whiteSpace=wrap;html=1;" vertex="1" parent="1">
          <mxGeometry x="41" y="136" width="71" height="21" as="geometry" />
        </mxCell>
        <mxCell id="jc9Oq-ymmOkImTj3RlM5-48" value="" style="rounded=0;whiteSpace=wrap;html=1;" vertex="1" parent="1">
          <mxGeometry x="-262" y="157" width="160" height="21" as="geometry" />
        </mxCell>
        <mxCell id="jc9Oq-ymmOkImTj3RlM5-49" value="" style="rounded=0;whiteSpace=wrap;html=1;" vertex="1" parent="1">
          <mxGeometry x="-102" y="157" width="77" height="21" as="geometry" />
        </mxCell>
        <mxCell id="jc9Oq-ymmOkImTj3RlM5-50" value="" style="rounded=0;whiteSpace=wrap;html=1;" vertex="1" parent="1">
          <mxGeometry x="-25" y="157" width="66" height="21" as="geometry" />
        </mxCell>
        <mxCell id="jc9Oq-ymmOkImTj3RlM5-51" value="" style="rounded=0;whiteSpace=wrap;html=1;" vertex="1" parent="1">
          <mxGeometry x="41" y="157" width="71" height="21" as="geometry" />
        </mxCell>
        <mxCell id="jc9Oq-ymmOkImTj3RlM5-52" value="" style="rounded=0;whiteSpace=wrap;html=1;" vertex="1" parent="1">
          <mxGeometry x="-262" y="178" width="160" height="21" as="geometry" />
        </mxCell>
        <mxCell id="jc9Oq-ymmOkImTj3RlM5-53" value="" style="rounded=0;whiteSpace=wrap;html=1;" vertex="1" parent="1">
          <mxGeometry x="-102" y="178" width="77" height="21" as="geometry" />
        </mxCell>
        <mxCell id="jc9Oq-ymmOkImTj3RlM5-54" value="" style="rounded=0;whiteSpace=wrap;html=1;" vertex="1" parent="1">
          <mxGeometry x="-25" y="178" width="66" height="21" as="geometry" />
        </mxCell>
        <mxCell id="jc9Oq-ymmOkImTj3RlM5-55" value="" style="rounded=0;whiteSpace=wrap;html=1;" vertex="1" parent="1">
          <mxGeometry x="41" y="178" width="71" height="21" as="geometry" />
        </mxCell>
        <mxCell id="jc9Oq-ymmOkImTj3RlM5-56" value="" style="rounded=0;whiteSpace=wrap;html=1;" vertex="1" parent="1">
          <mxGeometry x="-262" y="199" width="160" height="21" as="geometry" />
        </mxCell>
        <mxCell id="jc9Oq-ymmOkImTj3RlM5-57" value="" style="rounded=0;whiteSpace=wrap;html=1;" vertex="1" parent="1">
          <mxGeometry x="-102" y="199" width="77" height="21" as="geometry" />
        </mxCell>
        <mxCell id="jc9Oq-ymmOkImTj3RlM5-58" value="" style="rounded=0;whiteSpace=wrap;html=1;" vertex="1" parent="1">
          <mxGeometry x="-25" y="199" width="66" height="21" as="geometry" />
        </mxCell>
        <mxCell id="jc9Oq-ymmOkImTj3RlM5-59" value="" style="rounded=0;whiteSpace=wrap;html=1;" vertex="1" parent="1">
          <mxGeometry x="41" y="199" width="71" height="21" as="geometry" />
        </mxCell>
        <mxCell id="jc9Oq-ymmOkImTj3RlM5-60" value="" style="rounded=0;whiteSpace=wrap;html=1;" vertex="1" parent="1">
          <mxGeometry x="-262" y="220" width="160" height="21" as="geometry" />
        </mxCell>
        <mxCell id="jc9Oq-ymmOkImTj3RlM5-61" value="" style="rounded=0;whiteSpace=wrap;html=1;" vertex="1" parent="1">
          <mxGeometry x="-102" y="220" width="77" height="21" as="geometry" />
        </mxCell>
        <mxCell id="jc9Oq-ymmOkImTj3RlM5-62" value="" style="rounded=0;whiteSpace=wrap;html=1;" vertex="1" parent="1">
          <mxGeometry x="-25" y="220" width="66" height="21" as="geometry" />
        </mxCell>
        <mxCell id="jc9Oq-ymmOkImTj3RlM5-63" value="" style="rounded=0;whiteSpace=wrap;html=1;" vertex="1" parent="1">
          <mxGeometry x="41" y="220" width="71" height="21" as="geometry" />
        </mxCell>
        <mxCell id="jc9Oq-ymmOkImTj3RlM5-64" value="" style="rounded=0;whiteSpace=wrap;html=1;" vertex="1" parent="1">
          <mxGeometry x="-262" y="241" width="160" height="21" as="geometry" />
        </mxCell>
        <mxCell id="jc9Oq-ymmOkImTj3RlM5-65" value="" style="rounded=0;whiteSpace=wrap;html=1;" vertex="1" parent="1">
          <mxGeometry x="-102" y="241" width="77" height="21" as="geometry" />
        </mxCell>
        <mxCell id="jc9Oq-ymmOkImTj3RlM5-66" value="" style="rounded=0;whiteSpace=wrap;html=1;" vertex="1" parent="1">
          <mxGeometry x="-25" y="241" width="66" height="21" as="geometry" />
        </mxCell>
        <mxCell id="jc9Oq-ymmOkImTj3RlM5-67" value="" style="rounded=0;whiteSpace=wrap;html=1;" vertex="1" parent="1">
          <mxGeometry x="41" y="241" width="71" height="21" as="geometry" />
        </mxCell>
        <mxCell id="jc9Oq-ymmOkImTj3RlM5-68" value="" style="rounded=0;whiteSpace=wrap;html=1;" vertex="1" parent="1">
          <mxGeometry x="-262" y="262" width="160" height="21" as="geometry" />
        </mxCell>
        <mxCell id="jc9Oq-ymmOkImTj3RlM5-69" value="" style="rounded=0;whiteSpace=wrap;html=1;" vertex="1" parent="1">
          <mxGeometry x="-102" y="262" width="77" height="21" as="geometry" />
        </mxCell>
        <mxCell id="jc9Oq-ymmOkImTj3RlM5-70" value="" style="rounded=0;whiteSpace=wrap;html=1;" vertex="1" parent="1">
          <mxGeometry x="-25" y="262" width="66" height="21" as="geometry" />
        </mxCell>
        <mxCell id="jc9Oq-ymmOkImTj3RlM5-71" value="" style="rounded=0;whiteSpace=wrap;html=1;" vertex="1" parent="1">
          <mxGeometry x="41" y="262" width="71" height="21" as="geometry" />
        </mxCell>
        <mxCell id="jc9Oq-ymmOkImTj3RlM5-72" value="" style="rounded=0;whiteSpace=wrap;html=1;" vertex="1" parent="1">
          <mxGeometry x="112" y="-11" width="674" height="21" as="geometry" />
        </mxCell>
        <mxCell id="jc9Oq-ymmOkImTj3RlM5-78" value="" style="rounded=0;whiteSpace=wrap;html=1;" vertex="1" parent="1">
          <mxGeometry x="112" y="10" width="674" height="21" as="geometry" />
        </mxCell>
        <mxCell id="jc9Oq-ymmOkImTj3RlM5-79" value="" style="rounded=0;whiteSpace=wrap;html=1;" vertex="1" parent="1">
          <mxGeometry x="112" y="31" width="674" height="21" as="geometry" />
        </mxCell>
        <mxCell id="jc9Oq-ymmOkImTj3RlM5-80" value="" style="rounded=0;whiteSpace=wrap;html=1;" vertex="1" parent="1">
          <mxGeometry x="112" y="52" width="674" height="21" as="geometry" />
        </mxCell>
        <mxCell id="jc9Oq-ymmOkImTj3RlM5-81" value="" style="rounded=0;whiteSpace=wrap;html=1;" vertex="1" parent="1">
          <mxGeometry x="112" y="73" width="674" height="21" as="geometry" />
        </mxCell>
        <mxCell id="jc9Oq-ymmOkImTj3RlM5-82" value="" style="rounded=0;whiteSpace=wrap;html=1;" vertex="1" parent="1">
          <mxGeometry x="112" y="94" width="674" height="21" as="geometry" />
        </mxCell>
        <mxCell id="jc9Oq-ymmOkImTj3RlM5-83" value="" style="rounded=0;whiteSpace=wrap;html=1;" vertex="1" parent="1">
          <mxGeometry x="112" y="115" width="674" height="21" as="geometry" />
        </mxCell>
        <mxCell id="jc9Oq-ymmOkImTj3RlM5-86" value="" style="rounded=0;whiteSpace=wrap;html=1;" vertex="1" parent="1">
          <mxGeometry x="112" y="136" width="674" height="21" as="geometry" />
        </mxCell>
        <mxCell id="jc9Oq-ymmOkImTj3RlM5-87" value="" style="rounded=0;whiteSpace=wrap;html=1;" vertex="1" parent="1">
          <mxGeometry x="112" y="157" width="674" height="21" as="geometry" />
        </mxCell>
        <mxCell id="jc9Oq-ymmOkImTj3RlM5-88" value="" style="rounded=0;whiteSpace=wrap;html=1;" vertex="1" parent="1">
          <mxGeometry x="112" y="178" width="674" height="21" as="geometry" />
        </mxCell>
        <mxCell id="jc9Oq-ymmOkImTj3RlM5-89" value="" style="rounded=0;whiteSpace=wrap;html=1;" vertex="1" parent="1">
          <mxGeometry x="112" y="199" width="674" height="21" as="geometry" />
        </mxCell>
        <mxCell id="jc9Oq-ymmOkImTj3RlM5-90" value="" style="rounded=0;whiteSpace=wrap;html=1;" vertex="1" parent="1">
          <mxGeometry x="112" y="220" width="674" height="21" as="geometry" />
        </mxCell>
        <mxCell id="jc9Oq-ymmOkImTj3RlM5-91" value="" style="rounded=0;whiteSpace=wrap;html=1;" vertex="1" parent="1">
          <mxGeometry x="112" y="241" width="674" height="21" as="geometry" />
        </mxCell>
        <mxCell id="jc9Oq-ymmOkImTj3RlM5-92" value="" style="rounded=0;whiteSpace=wrap;html=1;" vertex="1" parent="1">
          <mxGeometry x="112" y="262" width="674" height="21" as="geometry" />
        </mxCell>
      </root>
    </mxGraphModel>
  </diagram>
</mxfile>
